{
	"asset":{
		"generator":"Khronos glTF Blender I/O v4.4.55",
		"version":"2.0"
	},
	"scene":0,
	"scenes":[
		{
			"name":"Scene",
			"nodes":[
				0,
				1,
				2
			]
		}
	],
	"nodes":[
		{
			"mesh":0,
			"name":"ground",
			"scale":[
				20,
				20,
				20
			]
		},
		{
			"mesh":1,
			"name":"boundary",
			"scale":[
				20,
				20,
				20
			],
			"translation":[
				-0.006575584411621094,
				-0.9629768133163452,
				0.05222177505493164
			]
		},
		{
			"mesh":2,
			"name":"water_plane",
			"scale":[
				20,
				20,
				20
			],
			"translation":[
				0,
				-0.6526843905448914,
				0
			]
		}
	],
	"meshes":[
		{
			"name":"Plane",
			"primitives":[
				{
					"attributes":{
						"POSITION":0,
						"NORMAL":1,
						"TEXCOORD_0":2
					},
					"indices":3
				}
			]
		},
		{
			"name":"Plane.003",
			"primitives":[
				{
					"attributes":{
						"POSITION":4,
						"NORMAL":5,
						"TEXCOORD_0":6
					},
					"indices":7
				}
			]
		},
		{
			"name":"Plane.002",
			"primitives":[
				{
					"attributes":{
						"POSITION":8,
						"NORMAL":9,
						"TEXCOORD_0":10
					},
					"indices":11
				}
			]
		}
	],
	"accessors":[
		{
			"bufferView":0,
			"componentType":5126,
			"count":938,
			"max":[
				1.0000001192092896,
				0,
				1.0000001192092896
			],
			"min":[
				-1.0000001192092896,
				-0.04971182718873024,
				-1.0000001192092896
			],
			"type":"VEC3"
		},
		{
			"bufferView":1,
			"componentType":5126,
			"count":938,
			"type":"VEC3"
		},
		{
			"bufferView":2,
			"componentType":5126,
			"count":938,
			"type":"VEC2"
		},
		{
			"bufferView":3,
			"componentType":5123,
			"count":4818,
			"type":"SCALAR"
		},
		{
			"bufferView":4,
			"componentType":5126,
			"count":680,
			"max":[
				0.7791964411735535,
				0.04294987767934799,
				0.7724480628967285
			],
			"min":[
				-0.7114009857177734,
				-0.00791226513683796,
				-0.8401581645011902
			],
			"type":"VEC3"
		},
		{
			"bufferView":5,
			"componentType":5126,
			"count":680,
			"type":"VEC3"
		},
		{
			"bufferView":6,
			"componentType":5126,
			"count":680,
			"type":"VEC2"
		},
		{
			"bufferView":7,
			"componentType":5123,
			"count":1050,
			"type":"SCALAR"
		},
		{
			"bufferView":8,
			"componentType":5126,
			"count":4,
			"max":[
				1,
				0,
				1
			],
			"min":[
				-1,
				0,
				-1
			],
			"type":"VEC3"
		},
		{
			"bufferView":9,
			"componentType":5126,
			"count":4,
			"type":"VEC3"
		},
		{
			"bufferView":10,
			"componentType":5126,
			"count":4,
			"type":"VEC2"
		},
		{
			"bufferView":11,
			"componentType":5123,
			"count":6,
			"type":"SCALAR"
		}
	],
	"bufferViews":[
		{
			"buffer":0,
			"byteLength":11256,
			"byteOffset":0,
			"target":34962
		},
		{
			"buffer":0,
			"byteLength":11256,
			"byteOffset":11256,
			"target":34962
		},
		{
			"buffer":0,
			"byteLength":7504,
			"byteOffset":22512,
			"target":34962
		},
		{
			"buffer":0,
			"byteLength":9636,
			"byteOffset":30016,
			"target":34963
		},
		{
			"buffer":0,
			"byteLength":8160,
			"byteOffset":39652,
			"target":34962
		},
		{
			"buffer":0,
			"byteLength":8160,
			"byteOffset":47812,
			"target":34962
		},
		{
			"buffer":0,
			"byteLength":5440,
			"byteOffset":55972,
			"target":34962
		},
		{
			"buffer":0,
			"byteLength":2100,
			"byteOffset":61412,
			"target":34963
		},
		{
			"buffer":0,
			"byteLength":48,
			"byteOffset":63512,
			"target":34962
		},
		{
			"buffer":0,
			"byteLength":48,
			"byteOffset":63560,
			"target":34962
		},
		{
			"buffer":0,
			"byteLength":32,
			"byteOffset":63608,
			"target":34962
		},
		{
			"buffer":0,
			"byteLength":12,
			"byteOffset":63640,
			"target":34963
		}
	],
	"buffers":[
		{
			"byteLength":63652,
			"uri":"start.bin"
		}
	]
}
